<?xml version="1.0" standalone="no"?>
<!DOCTYPE svg PUBLIC "-//W3C//DTD SVG 20010904//EN"
 "http://www.w3.org/TR/2001/REC-SVG-20010904/DTD/svg10.dtd">
<svg version="1.0" xmlns="http://www.w3.org/2000/svg"
 width="512.000000pt" height="512.000000pt" viewBox="0 0 512.000000 512.000000"
 preserveAspectRatio="xMidYMid meet">
<metadata>
Created by potrace 1.14, written by Peter Selinger 2001-2017
</metadata>
<g transform="translate(0.000000,512.000000) scale(0.100000,-0.100000)"
fill="#000000" stroke="none">
<path d="M2534 5096 c-11 -8 -47 -71 -79 -140 -43 -94 -63 -126 -77 -126 -12
0 -31 -26 -63 -89 -24 -49 -50 -91 -57 -94 -7 -2 -30 3 -51 11 -33 13 -41 13
-52 1 -8 -8 -89 -171 -180 -363 -135 -283 -166 -355 -161 -379 3 -16 1 -49 -5
-73 -10 -40 -14 -44 -38 -42 -24 3 -30 -6 -83 -112 -32 -63 -57 -126 -56 -140
2 -49 -2 -61 -26 -70 -17 -6 -39 -40 -80 -127 -50 -102 -55 -120 -45 -140 8
-14 10 -55 7 -120 l-5 -98 -291 -611 c-182 -382 -291 -621 -290 -640 0 -36
-16 -80 -82 -217 -46 -98 -50 -113 -45 -155 18 -126 44 -173 132 -229 42 -27
886 -435 1268 -614 l60 -28 -463 0 c-509 -1 -542 2 -696 61 -155 60 -325 198
-425 347 -52 75 -92 163 -123 263 l-23 73 -5 1275 -5 1275 -3 -1276 -2 -1276
25 -99 c83 -329 325 -577 657 -675 69 -21 100 -22 593 -29 399 -6 539 -11 600
-23 64 -12 132 -40 333 -136 330 -158 382 -172 478 -127 58 27 96 71 154 178
26 49 49 79 68 88 17 8 106 15 252 20 184 7 239 12 299 30 315 91 551 323 648
637 l27 88 7 885 c4 651 9 906 19 965 11 68 33 123 150 370 76 160 143 308
150 330 18 55 17 144 -2 180 -41 77 -88 112 -269 199 -105 50 -194 100 -220
122 -24 21 -36 29 -26 18 9 -11 17 -23 17 -26 0 -5 -244 109 -695 326 -128 62
-187 90 -824 392 -178 85 -335 154 -350 154 -15 0 -36 -6 -47 -14z m307 -569
l-21 -21 0 26 c0 31 33 57 38 31 2 -8 -5 -25 -17 -36z m604 -604 c-5 -26 -2
-33 15 -38 23 -7 25 -17 10 -46 -9 -16 -7 -21 15 -31 14 -6 25 -14 25 -18 0
-12 -119 -260 -125 -260 -5 0 -86 39 -93 45 -1 1 9 27 22 57 l25 56 -85 38
c-46 20 -85 35 -87 33 -2 -2 -11 -23 -22 -47 -10 -24 -22 -45 -26 -48 -7 -4
-83 29 -98 42 -2 2 25 62 59 133 55 114 65 129 81 121 28 -15 39 -12 51 15 9
19 14 22 29 15 27 -15 38 -12 50 14 l12 25 74 -37 c73 -36 74 -38 68 -69z
m-382 -612 c115 -56 127 -63 117 -81 -15 -28 -13 -36 15 -48 l25 -12 -25 -51
c-18 -35 -31 -49 -41 -45 -8 3 -20 8 -27 11 -8 4 -18 -5 -25 -20 -16 -34 -16
-32 12 -47 l25 -13 -21 -48 c-21 -49 -25 -51 -70 -32 -12 5 -18 3 -18 -6 -1
-46 -16 -43 -172 31 -84 40 -155 74 -157 76 -5 5 24 71 104 236 l66 138 32
-14 c18 -8 89 -41 160 -75z m1541 -2076 c-71 -359 -360 -647 -719 -720 -61
-12 -127 -15 -276 -13 l-196 3 157 330 c87 182 259 544 384 805 125 261 324
680 444 931 l217 456 3 -856 c2 -752 1 -866 -14 -936z m-1844 1389 c55 -26
100 -51 100 -56 0 -5 -5 -18 -10 -29 -9 -16 -7 -21 15 -31 27 -12 30 -24 16
-48 -8 -12 -17 -11 -60 9 -42 20 -49 27 -41 42 17 30 12 38 -42 65 -49 25 -52
25 -65 8 -7 -10 -13 -22 -13 -27 0 -5 -8 -6 -17 -2 -10 4 -24 9 -31 12 -8 3
-26 -25 -51 -78 l-40 -84 25 -13 c14 -8 23 -19 21 -25 -3 -7 -8 -19 -11 -27
-5 -12 9 -23 51 -44 32 -15 59 -24 61 -18 1 5 8 17 16 27 12 16 15 16 57 -5
55 -28 53 -25 40 -49 -10 -17 -15 -19 -38 -10 -17 6 -29 6 -31 1 -1 -5 -8 -16
-15 -24 -10 -14 -25 -10 -115 33 -94 44 -102 50 -93 68 16 29 14 37 -14 49
-22 10 -24 15 -15 31 15 29 13 37 -15 49 l-25 12 36 72 c20 40 38 75 40 77 2
2 15 -1 29 -7 23 -11 27 -9 37 13 12 28 20 30 49 15 16 -9 21 -7 31 15 6 14
13 25 15 25 1 0 48 -21 103 -46z m-1312 -528 c0 -14 -7 -27 -14 -30 -17 -7
-17 -4 -2 29 14 31 16 31 16 1z m-44 -110 c-2 -6 -13 -17 -24 -24 -19 -12 -19
-11 -3 23 11 22 19 31 24 23 4 -6 5 -16 3 -22z m108 -3 c-15 -32 -17 -33 -20
-14 -3 18 19 48 35 51 2 0 -5 -16 -15 -37z m-156 -76 c1 -14 -7 -29 -18 -36
-11 -7 -18 -8 -14 -3 3 5 10 21 15 36 13 32 16 33 17 3z m94 -57 c0 -5 -9 -14
-20 -20 -22 -12 -23 -10 -14 14 7 17 34 22 34 6z m-139 -58 c-12 -23 -41 -48
-41 -35 0 5 7 19 16 31 19 27 39 30 25 4z m83 -57 c-4 -8 -10 -15 -15 -15 -5
0 -9 7 -9 15 0 8 7 15 15 15 9 0 12 -6 9 -15z m-149 -65 c-15 -16 -31 -46 -35
-67 l-8 -38 -1 37 c-1 37 37 98 62 98 6 0 -2 -13 -18 -30z m94 -32 c0 -27 -2
-29 -8 -13 -5 11 -6 26 -4 33 8 21 13 13 12 -20z m-29 -77 c-11 -22 -29 -35
-36 -28 -5 4 35 47 43 47 2 0 -1 -9 -7 -19z m-140 -57 c0 -3 -11 -19 -25 -36
-14 -17 -25 -42 -25 -59 0 -16 -4 -29 -10 -29 -19 0 -10 46 17 88 25 37 43 53
43 36z m83 -65 c-8 -29 -13 -23 -13 14 0 22 3 28 9 18 5 -7 6 -22 4 -32z m-39
-78 c-10 -17 -22 -27 -27 -24 -4 3 2 16 14 29 30 32 34 30 13 -5z"/>
<path d="M3315 3930 c-5 -17 -12 -20 -38 -15 -30 6 -34 4 -55 -40 -12 -25 -22
-50 -22 -56 0 -10 135 -79 155 -79 11 0 55 81 55 100 0 6 -11 15 -25 22 -23
10 -23 12 -10 38 13 26 13 28 -11 39 -35 15 -42 14 -49 -9z"/>
<path d="M2925 3250 c-14 -27 -25 -52 -25 -55 0 -6 161 -87 165 -83 2 2 15 28
29 58 l26 55 -77 37 c-43 20 -81 37 -85 37 -4 1 -19 -21 -33 -49z"/>
<path d="M2845 3083 c-14 -31 -24 -57 -23 -57 2 -1 38 -18 81 -39 42 -20 80
-37 82 -37 6 0 57 112 53 115 -8 5 -161 75 -164 75 -2 0 -16 -25 -29 -57z"/>
</g>
</svg>
