<svg width="1024" height="1024" viewBox="0 0 1024 1024" fill="none" xmlns="http://www.w3.org/2000/svg">
<g clip-path="url(#clip0_1_2)">
<g filter="url(#filter0_dd_1_2)">
<rect x="100" y="100" width="824" height="824" rx="185" fill="white"/>
</g>
<g filter="url(#filter1_d_1_2)">
<path d="M356.562 344.109L330.395 398.98L296.698 380.959C295.927 380.548 295.362 379.817 295.121 378.918C294.879 378.019 294.981 377.022 295.404 376.137L316.8 331.272C317.221 330.386 317.932 329.68 318.782 329.302C319.633 328.924 320.557 328.903 321.361 329.244L356.562 344.109Z" fill="url(#paint0_linear_1_2)"/>
<path style="mix-blend-mode:multiply" opacity="0.33" d="M323.449 389.774L299.904 377.183C299.235 376.821 298.746 376.182 298.539 375.399C298.331 374.616 298.42 373.749 298.788 372.979L316.469 335.905C316.835 335.134 317.453 334.519 318.192 334.188C318.931 333.857 319.735 333.835 320.437 334.127L345.038 344.504C345.404 344.659 345.73 344.895 345.997 345.198C346.264 345.501 346.466 345.865 346.592 346.268C346.717 346.67 346.763 347.104 346.726 347.542C346.69 347.979 346.572 348.413 346.379 348.816L327.643 388.103C327.451 388.506 327.189 388.871 326.872 389.175C326.554 389.479 326.189 389.716 325.797 389.872C325.405 390.028 324.995 390.099 324.592 390.083C324.188 390.066 323.8 389.961 323.449 389.774Z" fill="url(#paint1_linear_1_2)"/>
<path d="M387.943 278.307L361.776 333.177L328.079 315.156C327.308 314.746 326.743 314.014 326.502 313.115C326.26 312.216 326.362 311.22 326.785 310.335L348.181 265.469C348.602 264.583 349.313 263.877 350.163 263.499C351.013 263.121 351.938 263.1 352.741 263.441L387.943 278.307Z" fill="url(#paint2_linear_1_2)"/>
<path style="mix-blend-mode:multiply" opacity="0.33" d="M354.83 323.971L331.285 311.38C330.616 311.019 330.127 310.38 329.919 309.597C329.712 308.814 329.801 307.947 330.169 307.176L347.849 270.103C348.216 269.332 348.833 268.717 349.573 268.385C350.312 268.054 351.116 268.032 351.818 268.324L376.418 278.702C376.784 278.856 377.111 279.092 377.378 279.396C377.645 279.699 377.847 280.062 377.972 280.465C378.098 280.868 378.143 281.301 378.107 281.739C378.07 282.177 377.952 282.61 377.76 283.013L359.024 322.3C358.832 322.704 358.57 323.068 358.252 323.372C357.935 323.676 357.57 323.913 357.178 324.069C356.786 324.225 356.376 324.297 355.973 324.28C355.569 324.263 355.18 324.158 354.83 323.971Z" fill="url(#paint3_linear_1_2)"/>
<path d="M474.802 108.063L402.056 260.606L364.094 240.568C363.226 240.111 362.568 239.336 362.259 238.405C361.951 237.473 362.014 236.459 362.437 235.574L430.434 92.9914C430.855 92.1056 431.604 91.4175 432.521 91.0715C433.439 90.7256 434.455 90.7487 435.357 91.1359L474.802 108.063Z" fill="url(#paint4_linear_1_2)"/>
<path style="mix-blend-mode:multiply" opacity="0.4" d="M393.919 250.959L367.391 236.964C366.638 236.562 366.069 235.885 365.802 235.074C365.536 234.263 365.593 233.381 365.961 232.61L430.249 97.8046C430.616 97.0338 431.266 96.4342 432.063 96.1308C432.861 95.8274 433.745 95.8436 434.531 96.176L462.108 107.973C462.518 108.149 462.889 108.406 463.197 108.729C463.506 109.052 463.746 109.434 463.903 109.851C464.06 110.269 464.131 110.715 464.112 111.161C464.093 111.607 463.984 112.045 463.791 112.448L398.455 249.452C398.263 249.855 397.992 250.215 397.657 250.511C397.323 250.807 396.932 251.032 396.508 251.173C396.084 251.313 395.636 251.367 395.192 251.33C394.747 251.294 394.314 251.167 393.919 250.959Z" fill="url(#paint5_linear_1_2)"/>
<path d="M471.329 61.118L180.786 670.361C179.884 672.253 180.686 674.517 182.577 675.419L242.58 704.044C244.471 704.947 246.735 704.145 247.637 702.253L538.18 93.0099C539.083 91.1185 538.281 88.8539 536.39 87.9517L476.387 59.3268C474.496 58.4246 472.231 59.2265 471.329 61.118Z" fill="url(#paint6_linear_1_2)"/>
<path d="M502.6 10.9403L156.727 736.206C153.115 743.78 156.325 752.848 163.898 756.461L608.74 968.676C616.312 972.289 625.379 969.077 628.991 961.503L974.864 236.238C978.476 228.664 975.266 219.596 967.693 215.983L522.851 3.76747C515.279 0.15497 506.212 3.36632 502.6 10.9403Z" fill="url(#paint7_linear_1_2)"/>
<path opacity="0.59" d="M163.789 740.64L510.062 14.5368C510.93 12.7163 512.486 11.3152 514.387 10.6419C516.288 9.96856 518.378 10.0781 520.199 10.9464L533.058 17.0809L180.238 756.912L167.379 750.778C165.558 749.91 164.158 748.354 163.485 746.452C162.811 744.551 162.921 742.46 163.789 740.64V740.64Z" fill="#F657B4"/>
<g style="mix-blend-mode:multiply" opacity="0.12">
<path d="M589.78 959.631L948.734 206.938L967.304 215.798C970.941 217.532 973.739 220.641 975.084 224.44C976.429 228.238 976.21 232.415 974.476 236.053L628.602 961.318C626.868 964.955 623.76 967.754 619.962 969.099C616.164 970.444 611.987 970.225 608.351 968.491L589.78 959.631Z" fill="#73008D"/>
</g>
<g filter="url(#filter2_d_1_2)">
<path d="M598.552 868.846L908.872 218.132C909.951 215.859 910.086 213.25 909.246 210.878C908.406 208.506 906.66 206.563 904.391 205.476L550.399 36.6004C548.127 35.5313 545.525 35.404 543.16 36.2463C540.795 37.0886 538.859 38.8323 537.774 41.0967L284.774 571.616C283.923 573.408 283.653 575.422 284.002 577.375C284.35 579.328 285.3 581.124 286.718 582.511L583.36 871.567C584.441 872.619 585.758 873.399 587.2 873.841C588.643 874.283 590.17 874.375 591.655 874.109C593.14 873.843 594.54 873.227 595.74 872.312C596.939 871.396 597.903 870.208 598.552 868.846V868.846Z" fill="url(#paint8_radial_1_2)"/>
<path d="M598.595 868.831L908.909 218.132C909.993 215.858 910.131 213.247 909.292 210.871C908.454 208.495 906.707 206.549 904.435 205.461L550.442 36.5855C548.167 35.5048 545.556 35.3714 543.182 36.2145C540.808 37.0576 538.866 38.8085 537.781 41.0826L284.773 571.617C283.918 573.408 283.645 575.423 283.994 577.377C284.342 579.331 285.295 581.127 286.717 582.512L583.375 871.575C584.459 872.629 585.779 873.41 587.225 873.852C588.671 874.294 590.202 874.384 591.69 874.116C593.178 873.848 594.581 873.228 595.782 872.309C596.983 871.39 597.947 870.198 598.595 868.831V868.831Z" fill="url(#paint9_linear_1_2)"/>
</g>
<g filter="url(#filter3_d_1_2)">
<path d="M268.226 707.688C266.005 712.793 262.009 716.919 256.979 719.303C255.329 719.992 253.55 720.32 251.762 720.266C249.974 720.211 248.219 719.774 246.614 718.985C245.009 718.22 243.582 717.127 242.424 715.778C241.265 714.429 240.402 712.853 239.889 711.15C238.523 706.662 239.376 700.295 241.851 695.105C244.589 689.362 248.274 685.484 253.09 683.468C254.733 682.794 256.501 682.476 258.276 682.535C260.051 682.594 261.794 683.029 263.389 683.81C264.992 684.583 266.421 685.674 267.588 687.016C268.756 688.359 269.638 689.926 270.18 691.621C271.616 696.308 270.822 702.244 268.226 707.688L264.742 706.026C266.144 703.294 266.404 700.117 265.467 697.193C264.998 695.861 264.257 694.641 263.293 693.61C262.329 692.578 261.162 691.757 259.865 691.198C258.608 690.564 257.237 690.186 255.832 690.086C254.427 689.986 253.016 690.167 251.682 690.616C248.887 691.794 246.622 693.957 245.316 696.694C244.011 699.432 243.756 702.554 244.599 705.467C245.645 708.1 247.646 710.24 250.203 711.46C252.759 712.679 255.682 712.888 258.385 712.044C261.239 710.919 263.539 708.721 264.792 705.921L268.276 707.583L268.226 707.688ZM222.944 734.788C221.456 737.862 220.611 741.206 220.459 744.617C220.377 747.754 221.203 750.755 224.328 752.246C225.949 753.019 227.802 753.149 229.514 752.609C231.552 751.85 233.307 750.482 234.54 748.691C235.531 747.42 237.457 744.575 239.212 741.741C240.967 738.907 242.678 736.052 243.533 735.028C244.222 734.2 245.321 732.742 247.13 733.605C247.682 733.906 248.124 734.373 248.394 734.94C248.664 735.508 248.748 736.146 248.634 736.764C248.488 739.026 247.873 741.233 246.828 743.245C245.61 745.629 244.051 747.823 242.199 749.757C240.943 751.134 239.309 752.111 237.501 752.564C236.482 752.733 235.436 752.598 234.493 752.175L232.903 755.51L242.128 759.911L243.876 756.247L242.635 755.655C242.542 755.611 242.463 755.543 242.405 755.458C242.347 755.373 242.313 755.275 242.306 755.173C242.299 755.07 242.319 754.968 242.364 754.876C242.41 754.784 242.479 754.705 242.564 754.649C244.135 753.282 245.566 751.764 246.837 750.115C248.166 748.517 249.293 746.761 250.193 744.887C251.451 742.378 252.297 739.682 252.697 736.903C253.041 735.075 253.026 733.197 252.654 731.375C252.445 730.354 251.999 729.397 251.352 728.581C250.705 727.766 249.874 727.114 248.928 726.679C247.154 725.82 245.114 725.69 243.246 726.318C242.245 726.695 241.316 727.238 240.497 727.925C239.608 728.685 238.791 729.524 238.054 730.431C236.691 732.094 234.083 736.1 232.904 738.034C231.555 740.419 230.051 742.713 228.401 744.9C228.137 745.233 227.772 745.471 227.36 745.577C226.948 745.682 226.513 745.649 226.122 745.483C225.727 745.274 225.396 744.962 225.165 744.58C224.933 744.198 224.809 743.76 224.807 743.314C224.82 740.741 225.46 738.211 226.671 735.942C227.903 733.243 229.68 730.828 231.889 728.849C232.5 728.325 233.171 727.875 233.887 727.507C235.124 726.962 236.506 726.835 237.822 727.145L239.248 724.154L231.219 720.323L229.643 723.628L230.57 724.071C230.869 724.213 231.123 724.72 230.516 725.146C227.299 727.744 224.705 731.028 222.922 734.759L222.944 734.788ZM258.929 663.104L281.158 653.938L271.286 649.431C270 648.817 269.341 648.815 268.684 650.19L267.258 653.181L264.342 651.791L270.911 638.017L273.827 639.408L272.4 642.399C271.687 643.894 272.151 644.115 273.511 644.765L292.33 653.449L290.084 658.16L264.666 668.816L276.419 674.422C277.704 675.036 278.302 675.321 278.966 673.93L280.542 670.625L283.532 672.052L277.114 685.511L274.123 684.085L275.635 680.914C276.199 679.733 275.056 679.243 274.233 678.85L260.522 672.309C259.625 671.881 258.529 671.524 257.645 673.378L256.425 675.935L253.435 674.509L258.929 663.104ZM298.914 632.1C299.058 631.839 299.186 631.569 299.299 631.293C299.326 631.135 299.317 630.973 299.273 630.818C299.229 630.664 299.151 630.521 299.045 630.401C298.842 630.277 298.627 630.174 298.402 630.094L293.782 627.89C293.663 627.833 293.618 627.812 293.286 627.892C292.954 627.972 279.657 631.762 279.06 631.936C278.531 632.057 278.033 632.29 277.601 632.619C277.169 632.947 276.812 633.365 276.554 633.843L275.184 636.714L272.269 635.324L279.971 619.172L282.887 620.563L281.96 622.507C281.746 622.956 282.037 623.462 282.701 623.301L291.882 620.944C291.882 620.944 292.015 620.897 291.954 620.794C291.892 620.692 288.095 612.106 288.056 612.033C288.002 611.926 287.918 611.837 287.814 611.777C287.711 611.716 287.592 611.687 287.472 611.691C287.352 611.696 287.237 611.734 287.138 611.803C287.039 611.871 286.962 611.966 286.916 612.076L285.96 614.08L283.045 612.689L289.356 599.454L292.272 600.845L290.846 603.836C290.592 604.269 290.46 604.763 290.463 605.265C290.466 605.767 290.604 606.258 290.862 606.689L296.75 620.513C296.831 620.664 296.965 620.78 297.126 620.839L301.747 623.043C301.945 623.165 302.155 623.265 302.375 623.343C302.537 623.35 302.698 623.322 302.848 623.26C302.998 623.199 303.133 623.105 303.242 622.986C303.386 622.724 303.515 622.454 303.628 622.178L305.054 619.187L308.044 620.614L300.513 636.406L297.523 634.98L298.914 632.1Z" fill="#73869B"/>
<path d="M267.18 707.189C264.958 712.293 260.963 716.42 255.932 718.804C254.281 719.49 252.503 719.816 250.716 719.761C248.928 719.706 247.173 719.271 245.567 718.485C243.96 717.719 242.53 716.626 241.37 715.276C240.209 713.926 239.343 712.348 238.827 710.644C237.477 706.163 238.329 699.795 240.804 694.606C243.543 688.863 247.227 684.985 252.043 682.969C253.686 682.294 255.454 681.975 257.229 682.034C259.005 682.093 260.747 682.528 262.342 683.311C263.943 684.086 265.371 685.177 266.538 686.52C267.706 687.863 268.589 689.428 269.134 691.122C270.569 695.809 269.776 701.745 267.18 707.189L263.696 705.527C265.094 702.79 265.349 699.611 264.406 696.687C263.938 695.357 263.201 694.138 262.239 693.107C261.278 692.077 260.113 691.257 258.819 690.699C257.561 690.064 256.19 689.687 254.785 689.587C253.38 689.487 251.97 689.667 250.635 690.117C247.833 691.286 245.561 693.447 244.254 696.188C242.948 698.928 242.698 702.054 243.553 704.968C244.593 707.601 246.592 709.742 249.147 710.961C251.701 712.18 254.623 712.386 257.324 711.537C260.19 710.43 262.499 708.231 263.746 705.422L267.229 707.084L267.18 707.189ZM221.898 734.289C220.417 737.365 219.572 740.708 219.413 744.118C219.345 747.262 220.157 750.256 223.282 751.746C224.906 752.524 226.765 752.657 228.483 752.117C230.513 751.344 232.263 749.979 233.508 748.199C234.485 746.921 236.425 744.083 238.165 741.242C239.906 738.401 241.631 735.552 242.502 734.536C243.19 733.708 244.289 732.249 246.084 733.105C246.637 733.404 247.08 733.872 247.351 734.439C247.621 735.007 247.704 735.646 247.587 736.264C247.442 738.527 246.827 740.734 245.781 742.746C244.56 745.127 243.007 747.322 241.167 749.264C239.911 750.642 238.277 751.618 236.47 752.072C235.445 752.241 234.393 752.103 233.447 751.676L231.856 755.011L241.111 759.426L242.859 755.762L241.603 755.163C241.51 755.119 241.431 755.051 241.373 754.966C241.316 754.881 241.282 754.783 241.274 754.68C241.267 754.578 241.287 754.476 241.333 754.384C241.378 754.291 241.447 754.213 241.532 754.156C243.109 752.795 244.546 751.278 245.82 749.63C247.144 748.028 248.266 746.27 249.161 744.395C250.421 741.887 251.272 739.194 251.68 736.418C252.024 734.59 252.009 732.712 251.637 730.89C251.421 729.872 250.972 728.919 250.326 728.104C249.68 727.289 248.853 726.635 247.911 726.194C246.138 725.331 244.097 725.202 242.229 725.833C241.226 726.204 240.295 726.748 239.48 727.44C238.592 728.2 237.774 729.039 237.037 729.946C235.675 731.609 233.052 735.608 231.872 737.542C230.528 739.929 229.029 742.224 227.384 744.414C227.119 744.75 226.75 744.989 226.335 745.093C225.92 745.197 225.482 745.161 225.09 744.991C224.697 744.779 224.369 744.467 224.137 744.085C223.906 743.704 223.781 743.268 223.775 742.822C223.795 740.251 224.44 737.723 225.654 735.457C226.886 732.758 228.663 730.343 230.872 728.364C231.479 727.834 232.15 727.383 232.87 727.022C234.079 726.473 235.435 726.334 236.731 726.624L238.157 723.633L230.113 719.795L228.536 723.101L229.478 723.55C229.778 723.693 230.016 724.192 229.424 724.626C226.231 727.25 223.66 730.55 221.898 734.289V734.289ZM257.905 662.634L280.119 653.461L270.262 648.96C268.976 648.347 268.317 648.344 267.661 649.72L266.234 652.711L263.244 651.285L269.812 637.511L272.803 638.938L271.376 641.929C270.663 643.424 271.112 643.638 272.487 644.294L291.292 652.972L289.045 657.682L263.642 668.345L275.395 673.952C276.666 674.558 277.279 674.851 277.942 673.46L279.518 670.155L282.508 671.581L276.09 685.041L273.099 683.615L274.611 680.444C275.175 679.263 274.017 678.765 273.194 678.373L259.483 671.832C258.601 671.411 257.49 671.046 256.606 672.901L255.386 675.458L252.396 674.032L257.905 662.634ZM297.875 631.623C298.019 631.362 298.147 631.092 298.26 630.816C298.284 630.655 298.272 630.492 298.226 630.336C298.179 630.181 298.099 630.038 297.992 629.916C297.793 629.795 297.583 629.694 297.364 629.617L292.728 627.406C292.624 627.356 292.579 627.334 292.232 627.407C291.885 627.481 278.603 631.278 278.021 631.459C277.492 631.58 276.994 631.813 276.562 632.141C276.13 632.47 275.773 632.888 275.515 633.366L274.146 636.237L271.155 634.811L278.858 618.659L281.848 620.086L280.921 622.03C280.707 622.479 280.983 622.977 281.647 622.817L290.828 620.46C290.903 620.495 290.961 620.413 290.9 620.31C290.839 620.207 287.026 611.615 287.002 611.548C286.948 611.442 286.864 611.353 286.76 611.292C286.657 611.232 286.538 611.202 286.418 611.207C286.299 611.211 286.183 611.25 286.084 611.318C285.986 611.386 285.909 611.481 285.862 611.592L284.906 613.596L281.916 612.169L288.228 598.934L291.218 600.36L289.792 603.352C289.536 603.782 289.401 604.274 289.401 604.775C289.401 605.276 289.537 605.767 289.793 606.197L295.681 620.021C295.763 620.172 295.897 620.288 296.058 620.348L300.693 622.559C300.892 622.679 301.102 622.78 301.321 622.858C301.483 622.866 301.644 622.838 301.794 622.776C301.944 622.714 302.079 622.621 302.189 622.501C302.332 622.24 302.461 621.97 302.574 621.694L304 618.703L306.991 620.129L299.466 635.907L296.476 634.48L297.875 631.623Z" fill="url(#paint10_linear_1_2)"/>
</g>
<g style="mix-blend-mode:multiply" opacity="0.5">
<path d="M888.001 318.896L897.055 320.462L899.503 321.024L897.571 319.496L890.461 313.736L892.259 309.968L901.191 311.751L903.668 312.29L901.78 310.747L894.805 304.629L896.538 300.995L908.169 312.436L906.543 315.846L897.425 314.029L894.448 313.343L896.847 315.241L904.004 321.17L902.42 324.49L886.196 322.679L888.001 318.896Z" fill="#89298A"/>
</g>
<g style="mix-blend-mode:multiply" opacity="0.5">
<path d="M904.09 285.157L906.537 280.027L920.457 286.668L918.874 289.988L909.469 285.502C909.2 285.373 908.811 285.188 908.333 284.96C907.854 284.731 907.465 284.546 907.196 284.417L917.362 293.159L915.714 296.613L902.542 294.331C902.811 294.46 903.185 294.638 903.678 294.873C904.172 295.109 904.545 295.287 904.815 295.415L914.22 299.902L912.636 303.222L898.716 296.581L901.183 291.407L913.612 293.518L904.09 285.157Z" fill="#89298A"/>
</g>
<g style="mix-blend-mode:multiply" opacity="0.5">
<path d="M915.908 279.082L918.989 272.622L921.5 273.82L918.419 280.281L915.908 279.082Z" fill="#89298A"/>
</g>
<g style="mix-blend-mode:multiply" opacity="0.5">
<path d="M925.271 269.763C924.393 268.342 923.903 266.715 923.849 265.046C923.791 263.737 923.633 262.434 923.377 261.149C923.291 260.735 923.115 260.345 922.86 260.007C922.605 259.67 922.278 259.393 921.903 259.198C921.633 259.052 921.336 258.965 921.03 258.943C920.725 258.92 920.418 258.963 920.13 259.068C919.816 259.198 919.531 259.391 919.293 259.633C919.054 259.875 918.866 260.163 918.741 260.479C918.507 260.851 918.379 261.279 918.37 261.718C918.362 262.157 918.472 262.59 918.691 262.97C919.095 263.469 919.606 263.87 920.187 264.143L918.661 267.343C917.667 266.868 916.819 266.134 916.206 265.218C915.741 264.337 915.514 263.351 915.547 262.356C915.581 261.361 915.874 260.392 916.397 259.545C917.036 258.001 918.173 256.715 919.626 255.89C920.174 255.599 920.778 255.429 921.398 255.391C922.017 255.354 922.637 255.449 923.216 255.672C923.796 255.894 924.321 256.238 924.756 256.681C925.191 257.123 925.526 257.654 925.738 258.237C926.08 259.279 926.28 260.362 926.332 261.457L926.46 263.152C926.561 264.21 926.634 264.942 926.7 265.341C926.759 265.738 926.886 266.122 927.077 266.475L930.6 259.088L932.963 260.215L927.478 271.715C926.601 271.244 925.845 270.576 925.271 269.763V269.763Z" fill="#89298A"/>
</g>
<g style="mix-blend-mode:multiply" opacity="0.5">
<path d="M932.688 254.209C931.849 252.777 931.398 251.15 931.378 249.49C931.319 248.181 931.161 246.879 930.905 245.594C930.82 245.178 930.645 244.786 930.392 244.447C930.138 244.107 929.813 243.827 929.439 243.627C929.168 243.48 928.869 243.393 928.561 243.373C928.254 243.353 927.945 243.401 927.658 243.512C927.344 243.643 927.06 243.835 926.821 244.078C926.583 244.32 926.395 244.608 926.269 244.924C926.036 245.295 925.908 245.724 925.899 246.162C925.89 246.601 926.001 247.034 926.219 247.415C926.623 247.914 927.135 248.315 927.715 248.588L926.189 251.788C925.199 251.306 924.353 250.573 923.734 249.662C923.269 248.782 923.042 247.795 923.076 246.8C923.109 245.805 923.402 244.836 923.925 243.989C924.565 242.445 925.701 241.159 927.155 240.335C927.755 240 928.429 239.819 929.117 239.807C929.804 239.796 930.484 239.954 931.095 240.269C932.11 240.753 932.891 241.621 933.267 242.681C933.608 243.723 933.808 244.806 933.86 245.902L933.988 247.596C934.089 248.654 934.162 249.387 934.229 249.786C934.287 250.183 934.414 250.567 934.605 250.92L938.1 243.592L940.463 244.719L934.985 256.205C934.066 255.74 933.277 255.055 932.688 254.209V254.209Z" fill="#89298A"/>
</g>
<path d="M601.27 835.435L317.066 557.784L306.639 579.648L590.116 858.825L601.27 835.435Z" fill="#2C66EF"/>
<path d="M334.374 593.651C334.135 593.914 333.979 594.242 333.925 594.593C333.932 594.904 334.009 595.209 334.15 595.486C334.291 595.763 334.493 596.005 334.74 596.194C335.012 596.483 335.333 596.723 335.687 596.902C335.905 597.035 336.162 597.087 336.415 597.05C336.667 597.013 336.898 596.888 337.069 596.699C337.175 596.594 337.251 596.463 337.287 596.318C337.324 596.174 337.32 596.022 337.276 595.88C337.127 595.436 336.912 595.018 336.638 594.639L336.051 593.753C335.612 593.151 335.274 592.481 335.051 591.771C334.976 591.374 335.006 590.965 335.136 590.584C335.267 590.202 335.494 589.861 335.796 589.593C336.086 589.311 336.434 589.096 336.815 588.961C337.196 588.826 337.601 588.775 338.004 588.811C338.997 588.922 339.915 589.392 340.585 590.134C341.27 590.789 341.723 591.649 341.875 592.585C341.946 593.03 341.91 593.485 341.77 593.913C341.63 594.341 341.389 594.729 341.069 595.046L339.688 593.708C339.864 593.523 339.986 593.293 340.04 593.044C340.094 592.794 340.079 592.535 339.995 592.294C339.837 591.915 339.598 591.576 339.295 591.299C339.001 590.967 338.611 590.736 338.179 590.638C338.008 590.598 337.83 590.605 337.663 590.657C337.496 590.71 337.346 590.807 337.229 590.937C337.114 591.049 337.035 591.191 337 591.347C336.964 591.503 336.975 591.665 337.03 591.815C337.203 592.224 337.417 592.615 337.667 592.982L338.59 594.432C338.938 594.927 339.183 595.487 339.31 596.079C339.353 596.45 339.308 596.825 339.176 597.175C339.045 597.524 338.831 597.837 338.554 598.087C338.269 598.39 337.92 598.625 337.531 598.773C337.142 598.922 336.725 598.98 336.31 598.944C335.29 598.822 334.349 598.334 333.662 597.57C332.858 596.876 332.313 595.93 332.115 594.886C332.055 594.441 332.1 593.988 332.248 593.564C332.396 593.141 332.642 592.758 332.966 592.447L334.374 593.651Z" fill="#0B0817"/>
<path d="M350.108 599.761L348.916 601.029L346.856 599.036L341.367 604.697L339.926 603.293L345.408 597.648L343.34 595.633L344.547 594.373L350.108 599.761Z" fill="#0B0817"/>
<path d="M355.705 607.498L352.097 603.941L350.687 605.398L354.022 608.641L352.866 609.834L349.524 606.605L347.807 608.357L351.58 611.992L350.373 613.252L345.166 608.198L351.851 601.456L356.869 606.328L355.705 607.498Z" fill="#0B0817"/>
<path d="M363.201 612.91C363.347 613.255 363.407 613.63 363.377 614.004C363.353 614.321 363.278 614.633 363.157 614.927C363.02 615.242 362.827 615.529 362.587 615.775C362.256 616.107 361.848 616.354 361.4 616.493C360.915 616.644 360.389 616.598 359.938 616.365C360.124 616.733 360.176 617.153 360.086 617.555C359.919 618.043 359.635 618.481 359.257 618.831L358.799 619.291C358.587 619.501 358.393 619.727 358.219 619.969C358.154 620.062 358.111 620.169 358.093 620.281C358.074 620.392 358.081 620.507 358.112 620.616L357.938 620.79L356.353 619.263L356.582 618.784C356.732 618.55 356.904 618.331 357.096 618.13L357.713 617.488C358.046 617.209 358.265 616.817 358.33 616.388C358.258 615.99 358.043 615.633 357.726 615.383L356.323 614.016L353.713 616.718L352.309 615.351L358.961 608.483L362.251 611.668C362.645 612.017 362.967 612.439 363.201 612.91V612.91ZM359.253 611.027L357.457 612.869L359.012 614.381C359.236 614.621 359.51 614.808 359.815 614.93C360.021 614.987 360.241 614.983 360.445 614.918C360.649 614.852 360.83 614.727 360.964 614.56C361.143 614.415 361.277 614.223 361.351 614.005C361.426 613.787 361.438 613.553 361.386 613.329C361.26 613.037 361.071 612.777 360.831 612.569L359.253 611.027Z" fill="#0B0817"/>
<path d="M370.66 621.976L367.037 618.412L365.627 619.868L368.969 623.097L367.813 624.289L364.471 621.061L362.763 622.834L366.535 626.47L365.328 627.73L360.122 622.676L366.774 615.808L371.792 620.68L370.66 621.976Z" fill="#0B0817"/>
<path d="M373.199 634.202C372.06 634.103 370.99 633.614 370.17 632.818C369.349 632.022 368.828 630.967 368.694 629.831C368.693 629.106 368.844 628.389 369.138 627.725C369.432 627.062 369.863 626.469 370.401 625.983C370.864 625.417 371.444 624.959 372.1 624.638C372.757 624.318 373.475 624.143 374.205 624.126C374.774 624.152 375.331 624.291 375.845 624.536C376.358 624.781 376.818 625.127 377.196 625.553C377.632 625.922 377.989 626.378 378.243 626.89C378.497 627.403 378.644 627.962 378.674 628.534C378.677 629.26 378.526 629.979 378.229 630.641C377.932 631.304 377.496 631.895 376.952 632.375C376.488 632.924 375.914 633.37 375.268 633.684C374.622 633.999 373.917 634.175 373.199 634.202V634.202ZM373.305 632.288C374.179 632.113 374.968 631.649 375.547 630.971C376.204 630.374 376.638 629.571 376.78 628.695C376.821 628.336 376.774 627.973 376.644 627.636C376.514 627.299 376.304 626.998 376.032 626.76C375.782 626.498 375.473 626.3 375.13 626.181C374.788 626.063 374.422 626.027 374.064 626.078C373.2 626.276 372.411 626.714 371.787 627.342C371.162 627.97 370.729 628.762 370.536 629.627C370.501 629.988 370.552 630.352 370.684 630.689C370.817 631.027 371.027 631.328 371.298 631.569C371.53 631.858 371.831 632.084 372.172 632.228C372.514 632.371 372.886 632.428 373.255 632.392L373.305 632.288Z" fill="#0B0817"/>
<path d="M385.667 635.615C386.268 635.63 386.861 635.767 387.409 636.017C387.956 636.268 388.447 636.626 388.852 637.072C389.257 637.517 389.568 638.04 389.765 638.609C389.963 639.178 390.043 639.781 390.001 640.381C389.896 641.021 389.612 641.617 389.181 642.101L387.754 640.705C387.957 640.374 388.084 640.002 388.127 639.616C388.119 639.305 388.045 638.999 387.909 638.72C387.773 638.44 387.579 638.193 387.339 637.995C387.099 637.797 386.82 637.653 386.519 637.573C386.219 637.492 385.905 637.477 385.598 637.528C384.749 637.746 383.988 638.224 383.423 638.896C382.78 639.459 382.353 640.23 382.219 641.075C382.18 641.392 382.216 641.714 382.325 642.014C382.434 642.315 382.611 642.585 382.844 642.805C383.043 643.013 383.287 643.173 383.557 643.273C383.827 643.373 384.116 643.411 384.403 643.383C384.806 643.308 385.191 643.155 385.536 642.932L386.954 644.307C386.18 644.907 385.225 645.228 384.244 645.217C383.249 645.158 382.315 644.713 381.643 643.976C381.193 643.581 380.835 643.091 380.596 642.542C380.357 641.993 380.241 641.398 380.257 640.8C380.365 639.48 380.954 638.245 381.912 637.33C382.391 636.808 382.971 636.387 383.616 636.092C384.261 635.798 384.958 635.635 385.667 635.615V635.615Z" fill="#0B0817"/>
<path d="M395.412 643.66L397.027 645.238L392.812 654.462L391.25 652.965L392.141 651.095L389.636 648.652L387.801 649.612L386.292 648.158L395.412 643.66ZM391.162 647.838L392.935 649.546L394.633 645.987L391.162 647.838Z" fill="#0B0817"/>
<path d="M397.594 655.018C397.368 655.29 397.214 655.614 397.144 655.96C397.158 656.271 397.238 656.576 397.377 656.854C397.516 657.132 397.712 657.378 397.953 657.576C398.235 657.862 398.559 658.103 398.914 658.292C399.136 658.418 399.395 658.465 399.647 658.426C399.899 658.386 400.131 658.262 400.303 658.073C400.41 657.969 400.485 657.837 400.522 657.693C400.558 657.548 400.554 657.396 400.51 657.254C400.362 656.81 400.146 656.392 399.872 656.013L399.285 655.127C398.841 654.529 398.503 653.858 398.285 653.145C398.214 652.752 398.245 652.346 398.374 651.968C398.503 651.589 398.726 651.25 399.023 650.982C399.312 650.699 399.66 650.482 400.041 650.347C400.422 650.212 400.829 650.162 401.231 650.2C402.227 650.303 403.147 650.775 403.812 651.523C404.509 652.169 404.964 653.034 405.103 653.974C405.175 654.419 405.139 654.875 404.999 655.303C404.859 655.731 404.618 656.119 404.296 656.435L402.916 655.097C403.091 654.912 403.213 654.682 403.267 654.433C403.321 654.184 403.306 653.924 403.223 653.683C403.074 653.297 402.837 652.951 402.53 652.673C402.227 652.352 401.836 652.127 401.406 652.027C401.238 651.985 401.061 651.989 400.895 652.039C400.729 652.089 400.58 652.183 400.463 652.312C400.345 652.421 400.263 652.563 400.227 652.72C400.192 652.877 400.205 653.04 400.264 653.19C400.432 653.602 400.645 653.993 400.901 654.356L401.825 655.807C402.177 656.304 402.419 656.87 402.537 657.468C402.578 657.836 402.531 658.208 402.401 658.554C402.271 658.9 402.061 659.211 401.789 659.461C401.501 659.746 401.154 659.964 400.772 660.099C400.39 660.234 399.983 660.283 399.58 660.243C398.56 660.121 397.619 659.633 396.932 658.869C396.128 658.206 395.569 657.293 395.342 656.275C395.283 655.828 395.33 655.372 395.479 654.946C395.628 654.52 395.875 654.134 396.201 653.821L397.594 655.018Z" fill="#0B0817"/>
<path d="M404.822 661.991C404.59 662.259 404.434 662.584 404.373 662.933C404.381 663.245 404.458 663.551 404.598 663.831C404.737 664.11 404.936 664.355 405.181 664.549C405.458 664.832 405.777 665.071 406.127 665.257C406.348 665.381 406.603 665.428 406.853 665.391C407.103 665.354 407.334 665.236 407.509 665.054C407.616 664.949 407.691 664.818 407.728 664.673C407.764 664.529 407.76 664.377 407.716 664.235C407.577 663.784 407.364 663.36 407.085 662.979L406.498 662.093C406.054 661.495 405.716 660.824 405.498 660.111C405.431 659.717 405.464 659.313 405.596 658.935C405.727 658.558 405.953 658.221 406.251 657.955C406.538 657.668 406.885 657.449 407.267 657.314C407.649 657.178 408.056 657.13 408.46 657.173C409.455 657.276 410.375 657.748 411.041 658.496C411.73 659.148 412.184 660.01 412.331 660.947C412.403 661.392 412.368 661.848 412.227 662.276C412.087 662.704 411.846 663.092 411.525 663.408L410.144 662.07C410.323 661.887 410.447 661.657 410.501 661.407C410.555 661.157 410.538 660.897 410.451 660.656C410.303 660.269 410.066 659.923 409.758 659.646C409.455 659.325 409.064 659.1 408.634 659C408.466 658.958 408.29 658.962 408.124 659.012C407.957 659.062 407.808 659.156 407.691 659.284C407.58 659.398 407.503 659.541 407.468 659.696C407.433 659.851 407.441 660.012 407.493 660.163C407.653 660.577 407.867 660.97 408.129 661.329L409.068 662.787C409.421 663.279 409.659 663.844 409.765 664.441C409.81 664.809 409.765 665.182 409.635 665.529C409.505 665.876 409.293 666.186 409.017 666.434C408.734 666.739 408.384 666.975 407.995 667.124C407.606 667.273 407.188 667.33 406.773 667.291C405.749 667.165 404.804 666.681 404.102 665.925C403.307 665.223 402.764 664.281 402.556 663.241C402.494 662.796 402.541 662.343 402.692 661.919C402.842 661.496 403.093 661.115 403.422 660.809L404.822 661.991Z" fill="#0B0817"/>
<path d="M419.497 669.359L415.874 665.795L414.463 667.252L417.799 670.495L416.643 671.687L413.308 668.444L411.599 670.217L415.372 673.853L414.165 675.113L409.019 670.162L415.679 663.279L420.697 668.151L419.497 669.359Z" fill="#0B0817"/>
<path d="M427.798 675.045L426.591 676.305L424.546 674.32L419.041 679.936L417.6 678.532L423.074 672.865L421.014 670.872L422.206 669.605L427.798 675.045Z" fill="#0B0817"/>
<path d="M434.476 681.516L433.269 682.777L431.209 680.784L425.742 686.437L424.279 685.041L429.768 679.381L427.693 677.381L428.9 676.121L434.476 681.516Z" fill="#0B0817"/>
<path d="M440.059 689.283L436.436 685.719L435.025 687.176L438.368 690.404L437.176 691.671L433.841 688.428L432.118 690.194L435.89 693.83L434.683 695.09L429.47 690.051L436.144 683.175L441.162 688.047L440.059 689.283Z" fill="#0B0817"/>
<path d="M447.688 701.881C446.835 701.765 446.051 701.352 445.473 700.714L444.039 699.333L441.626 701.853L440.193 700.472L446.845 693.604L449.728 696.411C450.351 696.951 450.751 697.705 450.849 698.524C450.847 698.946 450.752 699.361 450.571 699.741C450.39 700.121 450.127 700.457 449.8 700.723C449.549 701.053 449.231 701.327 448.867 701.526C448.503 701.726 448.101 701.847 447.688 701.881V701.881ZM448.993 698.337C448.925 697.963 448.73 697.623 448.441 697.376L447.196 696.139L445.24 698.162L446.486 699.399C446.747 699.68 447.105 699.85 447.488 699.876C447.687 699.871 447.883 699.822 448.062 699.733C448.241 699.644 448.398 699.517 448.523 699.361C448.671 699.234 448.789 699.077 448.87 698.9C448.952 698.724 448.993 698.531 448.993 698.337V698.337Z" fill="#0B0817"/>
<path d="M454.057 700.495L455.498 701.899L449.934 707.524L453.382 710.839L452.175 712.099L447.301 707.388L454.057 700.495Z" fill="#0B0817"/>
<path d="M462.689 708.873L464.326 710.443L460.089 719.675L458.534 718.162L459.426 716.293L456.921 713.849L455.086 714.81L453.599 713.348L462.689 708.873ZM458.454 713.057L460.213 714.759L461.917 711.184L458.454 713.057Z" fill="#0B0817"/>
<path d="M471.503 717.409L473.14 718.98L466.65 721.042L464.192 723.541L462.743 722.152L465.252 719.586L467.026 712.979L468.724 714.615L467.242 718.993L471.503 717.409Z" fill="#0B0817"/>
<path d="M478.701 726.754L475.078 723.19L473.667 724.647L477.01 727.875L475.854 729.068L472.511 725.839L470.803 727.613L474.575 731.248L473.354 732.501L468.162 727.454L474.875 720.652L479.893 725.524L478.701 726.754Z" fill="#0B0817"/>
<path d="M486.245 732.024C486.39 732.375 486.447 732.755 486.414 733.133C486.359 733.793 486.065 734.409 485.587 734.868C485.256 735.2 484.848 735.447 484.4 735.586C484.16 735.666 483.907 735.695 483.656 735.673C483.404 735.651 483.16 735.578 482.938 735.458C483.119 735.835 483.174 736.26 483.094 736.67C482.919 737.155 482.629 737.59 482.25 737.939L481.792 738.399C481.584 738.605 481.393 738.827 481.219 739.062C481.154 739.158 481.11 739.267 481.091 739.381C481.071 739.495 481.076 739.612 481.105 739.724L480.938 739.883L479.353 738.356L479.582 737.877C479.742 737.65 479.913 737.432 480.096 737.223L480.713 736.581C481.046 736.301 481.265 735.91 481.33 735.48C481.258 735.083 481.043 734.726 480.726 734.476L479.323 733.109L476.713 735.811L475.309 734.444L481.961 727.576L485.251 730.761C485.657 731.118 485.994 731.546 486.245 732.024V732.024ZM482.298 730.141L480.517 731.99L482.064 733.481C482.285 733.723 482.557 733.916 482.86 734.044C483.068 734.106 483.292 734.103 483.498 734.034C483.705 733.965 483.886 733.834 484.016 733.659C484.192 733.516 484.324 733.326 484.398 733.111C484.471 732.896 484.482 732.665 484.43 732.443C484.316 732.143 484.128 731.876 483.882 731.668L482.298 730.141Z" fill="#0B0817"/>
<path d="M507.046 671.811C507.864 667.942 507.298 665.586 505.007 663.277C504.345 662.599 503.555 662.06 502.681 661.693C501.808 661.326 500.87 661.138 499.922 661.14C498.975 661.143 498.038 661.336 497.166 661.707C496.295 662.079 495.507 662.622 494.849 663.304C492.652 665.485 492.632 667.752 494.46 673.219C495.508 675.878 496.368 678.609 497.033 681.389C497.376 682.825 497.338 684.326 496.921 685.742C496.504 687.158 495.723 688.44 494.657 689.461C492.411 691.562 489.423 692.685 486.35 692.583C483.276 692.481 480.369 691.162 478.268 688.917C474.56 685.216 473.799 680.541 476.112 675.159L478.335 675.934C477.813 677.247 477.442 678.615 477.228 680.011C477.094 681.869 477.518 683.725 478.447 685.339C479.376 686.954 480.767 688.253 482.441 689.07C484.115 689.886 485.995 690.183 487.839 689.922C489.683 689.66 491.406 688.853 492.787 687.603C493.647 686.725 494.246 685.625 494.517 684.426C494.788 683.227 494.72 681.977 494.321 680.814C493.919 679.429 493.889 679.229 491.86 673.236C489.831 667.244 490.057 664.376 492.988 661.468C493.873 660.531 494.944 659.787 496.131 659.284C497.319 658.782 498.598 658.531 499.887 658.547C501.176 658.564 502.448 658.848 503.623 659.381C504.797 659.914 505.847 660.685 506.709 661.645C508.062 662.969 509.029 664.637 509.505 666.47C509.981 668.302 509.948 670.23 509.41 672.046L507.046 671.811Z" fill="#2C66EF"/>
<path d="M496.587 706.309L494.866 704.562L520.264 679.236L513.351 672.308L514.972 670.691L530.644 686.411L529.023 688.029L521.999 680.99L496.587 706.309Z" fill="#2C66EF"/>
<path d="M533.466 692.484L523.668 702.262L534.541 713.238L532.928 714.841L522.055 703.864L509.681 716.209L520.807 727.311L519.186 728.928L506.303 716.005L533.321 689.061L546.204 701.984L544.584 703.601L533.466 692.484Z" fill="#2C66EF"/>
<path d="M536.853 746.699L534.717 744.56L538.834 723.155L538.033 722.349L525.268 735.071L523.525 733.332L550.543 706.388L554.37 710.148C557.122 712.909 558.28 714.819 558.683 717.242C558.906 718.802 558.741 720.394 558.202 721.876C557.664 723.357 556.768 724.684 555.595 725.737C554.414 727.05 552.889 728.005 551.192 728.494C549.495 728.983 547.696 728.987 545.997 728.504C544.049 727.754 542.286 726.591 540.829 725.094L536.853 746.699ZM542.228 723.329C546.099 727.222 550.367 727.388 553.838 723.953C554.812 723.081 555.54 721.968 555.948 720.725C556.356 719.482 556.431 718.154 556.163 716.874C555.5 714.992 554.371 713.309 552.883 711.98L550.666 709.744L539.639 720.724L542.228 723.329Z" fill="#2C66EF"/>
<path d="M568.021 727.175L558.223 736.953L569.097 747.929L567.476 749.546L556.603 738.57L544.229 750.914L555.355 762.016L553.734 763.634L540.858 750.696L567.877 723.752L580.775 736.682L579.132 738.307L568.021 727.175Z" fill="#2C66EF"/>
<path d="M597.879 780.944C595.132 783.743 591.615 785.663 587.775 786.458C583.935 787.254 579.946 786.89 576.313 785.413C572.681 783.936 569.569 781.412 567.374 778.162C565.178 774.912 563.998 771.083 563.984 767.161C563.969 763.239 565.12 759.401 567.29 756.135C569.461 752.869 572.554 750.321 576.175 748.816C579.796 747.312 583.783 746.917 587.628 747.684C591.474 748.45 595.005 750.342 597.773 753.12C601.426 756.822 603.483 761.809 603.503 767.011C603.523 772.212 601.504 777.214 597.879 780.944V780.944ZM571.949 754.61C570.195 756.285 568.82 758.316 567.916 760.566C567.011 762.816 566.598 765.234 566.703 767.657C566.871 771.928 568.591 775.991 571.539 779.085C573.919 781.548 576.976 783.249 580.322 783.974C583.669 784.699 587.156 784.415 590.341 783.158C593.526 781.901 596.267 779.727 598.218 776.912C600.168 774.096 601.239 770.766 601.296 767.341C601.354 763.917 600.394 760.552 598.539 757.673C596.685 754.794 594.018 752.53 590.876 751.167C587.735 749.804 584.26 749.404 580.891 750.017C577.521 750.629 574.41 752.228 571.949 754.61V754.61Z" fill="#2C66EF"/>
<ellipse cx="563.569" cy="123.787" rx="70.526" ry="13.032" transform="rotate(-64.5 563.569 123.787)" fill="url(#paint11_radial_1_2)"/>
<ellipse cx="564.261" cy="124.117" rx="70.526" ry="30.6635" transform="rotate(-64.5 564.261 124.117)" fill="url(#paint12_radial_1_2)" fill-opacity="0.5"/>
<circle cx="567.497" cy="113.77" r="36.7962" transform="rotate(-64.5 567.497 113.77)" fill="url(#paint13_radial_1_2)" fill-opacity="0.26"/>
<ellipse cx="568.664" cy="114.886" rx="47.5284" ry="6.14769" transform="rotate(25.5 568.664 114.886)" fill="url(#paint14_radial_1_2)"/>
<ellipse cx="568.508" cy="115.213" rx="47.5284" ry="14.4652" transform="rotate(25.5 568.508 115.213)" fill="url(#paint15_radial_1_2)" fill-opacity="0.5"/>
<circle cx="567.497" cy="113.77" r="9.19904" transform="rotate(-64.5 567.497 113.77)" fill="url(#paint16_radial_1_2)"/>
<ellipse cx="568.189" cy="114.1" rx="3.06635" ry="40.6291" transform="rotate(-64.5 568.189 114.1)" fill="url(#paint17_radial_1_2)" fill-opacity="0.49"/>
<ellipse cx="568.189" cy="114.1" rx="3.06635" ry="40.6291" transform="rotate(25.5 568.189 114.1)" fill="url(#paint18_radial_1_2)" fill-opacity="0.88"/>
<g filter="url(#filter4_d_1_2)">
<path d="M602.329 283.187L628.16 229.032L638.991 234.198L644.157 223.367L654.988 228.533L660.154 217.702L692.647 233.2L687.481 244.031L698.312 249.198L693.146 260.029L703.977 265.195L678.146 319.35L656.484 309.018L666.816 287.356L634.323 271.857L623.991 293.519L602.329 283.187ZM639.489 261.026L671.983 276.525L682.315 254.863L671.484 249.696L676.65 238.865L665.819 233.699L660.653 244.53L649.822 239.364L639.489 261.026ZM537.752 418.575L573.915 342.758L638.901 373.754L633.735 384.585L644.566 389.752L634.234 411.414L623.403 406.247L618.237 417.079L629.068 422.245L618.736 443.907L607.905 438.741L602.739 449.572L537.752 418.575ZM580.079 385.583L612.572 401.081L622.904 379.419L590.411 363.921L580.079 385.583ZM564.581 418.076L597.074 433.574L607.406 411.912L574.913 396.414L564.581 418.076ZM494.838 564.295L500.004 553.464L489.173 548.298L494.339 537.467L483.508 532.301L499.006 499.807L509.837 504.974L515.004 494.143L525.835 499.309L531.001 488.478L574.325 509.142L569.159 519.973L579.99 525.139L574.824 535.97L553.161 525.638L558.328 514.807L536.666 504.475L531.499 515.306L520.668 510.14L505.17 542.633L516.001 547.799L510.835 558.63L532.497 568.962L537.663 558.131L559.325 568.463L554.159 579.294L543.328 574.128L538.162 584.959L494.838 564.295Z" fill="white"/>
</g>
</g>
</g>
<defs>
<filter id="filter0_dd_1_2" x="91.0001" y="98" width="842" height="846" filterUnits="userSpaceOnUse" color-interpolation-filters="sRGB">
<feFlood flood-opacity="0" result="BackgroundImageFix"/>
<feColorMatrix in="SourceAlpha" type="matrix" values="0 0 0 0 0 0 0 0 0 0 0 0 0 0 0 0 0 0 127 0" result="hardAlpha"/>
<feMorphology radius="1" operator="dilate" in="SourceAlpha" result="effect1_dropShadow_1_2"/>
<feOffset dy="7"/>
<feGaussianBlur stdDeviation="4"/>
<feComposite in2="hardAlpha" operator="out"/>
<feColorMatrix type="matrix" values="0 0 0 0 0 0 0 0 0 0 0 0 0 0 0 0 0 0 0.15 0"/>
<feBlend mode="normal" in2="BackgroundImageFix" result="effect1_dropShadow_1_2"/>
<feColorMatrix in="SourceAlpha" type="matrix" values="0 0 0 0 0 0 0 0 0 0 0 0 0 0 0 0 0 0 127 0" result="hardAlpha"/>
<feOffset dy="12"/>
<feGaussianBlur stdDeviation="4"/>
<feComposite in2="hardAlpha" operator="out"/>
<feColorMatrix type="matrix" values="0 0 0 0 0 0 0 0 0 0 0 0 0 0 0 0 0 0 0.15 0"/>
<feBlend mode="normal" in2="effect1_dropShadow_1_2" result="effect2_dropShadow_1_2"/>
<feBlend mode="normal" in="SourceGraphic" in2="effect2_dropShadow_1_2" result="shape"/>
</filter>
<filter id="filter1_d_1_2" x="-372" y="-104.49" width="1862.73" height="1208.54" filterUnits="userSpaceOnUse" color-interpolation-filters="sRGB">
<feFlood flood-opacity="0" result="BackgroundImageFix"/>
<feColorMatrix in="SourceAlpha" type="matrix" values="0 0 0 0 0 0 0 0 0 0 0 0 0 0 0 0 0 0 127 0" result="hardAlpha"/>
<feOffset dx="9" dy="20"/>
<feGaussianBlur stdDeviation="20.5"/>
<feColorMatrix type="matrix" values="0 0 0 0 0 0 0 0 0 0 0 0 0 0 0 0 0 0 0.4 0"/>
<feBlend mode="normal" in2="BackgroundImageFix" result="effect1_dropShadow_1_2"/>
<feBlend mode="normal" in="SourceGraphic" in2="effect1_dropShadow_1_2" result="shape"/>
</filter>
<filter id="filter2_d_1_2" x="277.713" y="35.6662" width="638.254" height="850.866" filterUnits="userSpaceOnUse" color-interpolation-filters="sRGB">
<feFlood flood-opacity="0" result="BackgroundImageFix"/>
<feColorMatrix in="SourceAlpha" type="matrix" values="0 0 0 0 0 0 0 0 0 0 0 0 0 0 0 0 0 0 127 0" result="hardAlpha"/>
<feOffset dy="6.13269"/>
<feGaussianBlur stdDeviation="3.06635"/>
<feColorMatrix type="matrix" values="0 0 0 0 0 0 0 0 0 0 0 0 0 0 0 0 0 0 0.25 0"/>
<feBlend mode="normal" in2="BackgroundImageFix" result="effect1_dropShadow_1_2"/>
<feBlend mode="normal" in="SourceGraphic" in2="effect1_dropShadow_1_2" result="shape"/>
</filter>
<filter id="filter3_d_1_2" x="213.276" y="598.934" width="100.901" height="173.243" filterUnits="userSpaceOnUse" color-interpolation-filters="sRGB">
<feFlood flood-opacity="0" result="BackgroundImageFix"/>
<feColorMatrix in="SourceAlpha" type="matrix" values="0 0 0 0 0 0 0 0 0 0 0 0 0 0 0 0 0 0 127 0" result="hardAlpha"/>
<feOffset dy="6.13269"/>
<feGaussianBlur stdDeviation="3.06635"/>
<feColorMatrix type="matrix" values="0 0 0 0 0 0 0 0 0 0 0 0 0 0 0 0 0 0 0.25 0"/>
<feBlend mode="normal" in2="BackgroundImageFix" result="effect1_dropShadow_1_2"/>
<feBlend mode="normal" in="SourceGraphic" in2="effect1_dropShadow_1_2" result="shape"/>
</filter>
<filter id="filter4_d_1_2" x="469.176" y="207.37" width="249.133" height="390.756" filterUnits="userSpaceOnUse" color-interpolation-filters="sRGB">
<feFlood flood-opacity="0" result="BackgroundImageFix"/>
<feColorMatrix in="SourceAlpha" type="matrix" values="0 0 0 0 0 0 0 0 0 0 0 0 0 0 0 0 0 0 127 0" result="hardAlpha"/>
<feOffset dy="4"/>
<feGaussianBlur stdDeviation="2"/>
<feComposite in2="hardAlpha" operator="out"/>
<feColorMatrix type="matrix" values="0 0 0 0 0 0 0 0 0 0 0 0 0 0 0 0 0 0 0.25 0"/>
<feBlend mode="normal" in2="BackgroundImageFix" result="effect1_dropShadow_1_2"/>
<feBlend mode="normal" in="SourceGraphic" in2="effect1_dropShadow_1_2" result="shape"/>
</filter>
<linearGradient id="paint0_linear_1_2" x1="311.698" y1="390.06" x2="337.873" y2="335.193" gradientUnits="userSpaceOnUse">
<stop stop-color="#595B77"/>
<stop offset="0.01" stop-color="#474C68"/>
<stop offset="0.03" stop-color="#454A67"/>
<stop offset="0.1" stop-color="#373D53"/>
<stop offset="0.28" stop-color="#192129"/>
<stop offset="0.41" stop-color="#071010"/>
<stop offset="0.49" stop-color="#000A06"/>
<stop offset="0.71" stop-color="#010B08"/>
<stop offset="0.78" stop-color="#06100F"/>
<stop offset="0.84" stop-color="#0F181A"/>
<stop offset="0.88" stop-color="#1B232B"/>
<stop offset="0.92" stop-color="#2A3141"/>
<stop offset="0.95" stop-color="#3D435C"/>
<stop offset="0.97" stop-color="#454A67"/>
<stop offset="0.98" stop-color="#474C68"/>
<stop offset="0.99" stop-color="#4E516E"/>
<stop offset="1" stop-color="#6B6A85"/>
</linearGradient>
<linearGradient id="paint1_linear_1_2" x1="13431.4" y1="-15016.4" x2="14085.1" y2="-16386.8" gradientUnits="userSpaceOnUse">
<stop stop-color="#595B77"/>
<stop offset="0.01" stop-color="#474C68"/>
<stop offset="0.03" stop-color="#454A67"/>
<stop offset="0.1" stop-color="#373D53"/>
<stop offset="0.28" stop-color="#192129"/>
<stop offset="0.41" stop-color="#071010"/>
<stop offset="0.49" stop-color="#000A06"/>
<stop offset="0.71" stop-color="#010B08"/>
<stop offset="0.78" stop-color="#06100F"/>
<stop offset="0.84" stop-color="#0F181A"/>
<stop offset="0.88" stop-color="#1B232B"/>
<stop offset="0.92" stop-color="#2A3141"/>
<stop offset="0.95" stop-color="#3D435C"/>
<stop offset="0.97" stop-color="#454A67"/>
<stop offset="0.98" stop-color="#474C68"/>
<stop offset="0.99" stop-color="#4E516E"/>
<stop offset="1" stop-color="#6B6A85"/>
</linearGradient>
<linearGradient id="paint2_linear_1_2" x1="343.079" y1="324.258" x2="369.254" y2="269.391" gradientUnits="userSpaceOnUse">
<stop stop-color="#595B77"/>
<stop offset="0.01" stop-color="#474C68"/>
<stop offset="0.03" stop-color="#454A67"/>
<stop offset="0.1" stop-color="#373D53"/>
<stop offset="0.28" stop-color="#192129"/>
<stop offset="0.41" stop-color="#071010"/>
<stop offset="0.49" stop-color="#000A06"/>
<stop offset="0.71" stop-color="#010B08"/>
<stop offset="0.78" stop-color="#06100F"/>
<stop offset="0.84" stop-color="#0F181A"/>
<stop offset="0.88" stop-color="#1B232B"/>
<stop offset="0.92" stop-color="#2A3141"/>
<stop offset="0.95" stop-color="#3D435C"/>
<stop offset="0.97" stop-color="#454A67"/>
<stop offset="0.98" stop-color="#474C68"/>
<stop offset="0.99" stop-color="#4E516E"/>
<stop offset="1" stop-color="#6B6A85"/>
</linearGradient>
<linearGradient id="paint3_linear_1_2" x1="13462.8" y1="-15082.2" x2="14116.5" y2="-16452.6" gradientUnits="userSpaceOnUse">
<stop stop-color="#595B77"/>
<stop offset="0.01" stop-color="#474C68"/>
<stop offset="0.03" stop-color="#454A67"/>
<stop offset="0.1" stop-color="#373D53"/>
<stop offset="0.28" stop-color="#192129"/>
<stop offset="0.41" stop-color="#071010"/>
<stop offset="0.49" stop-color="#000A06"/>
<stop offset="0.71" stop-color="#010B08"/>
<stop offset="0.78" stop-color="#06100F"/>
<stop offset="0.84" stop-color="#0F181A"/>
<stop offset="0.88" stop-color="#1B232B"/>
<stop offset="0.92" stop-color="#2A3141"/>
<stop offset="0.95" stop-color="#3D435C"/>
<stop offset="0.97" stop-color="#454A67"/>
<stop offset="0.98" stop-color="#474C68"/>
<stop offset="0.99" stop-color="#4E516E"/>
<stop offset="1" stop-color="#6B6A85"/>
</linearGradient>
<linearGradient id="paint4_linear_1_2" x1="381.027" y1="250.629" x2="453.815" y2="98.0509" gradientUnits="userSpaceOnUse">
<stop stop-color="#595B77"/>
<stop offset="0.01" stop-color="#474C68"/>
<stop offset="0.03" stop-color="#454A67"/>
<stop offset="0.1" stop-color="#373D53"/>
<stop offset="0.28" stop-color="#192129"/>
<stop offset="0.41" stop-color="#071010"/>
<stop offset="0.49" stop-color="#000A06"/>
<stop offset="0.71" stop-color="#010B08"/>
<stop offset="0.78" stop-color="#06100F"/>
<stop offset="0.84" stop-color="#0F181A"/>
<stop offset="0.88" stop-color="#1B232B"/>
<stop offset="0.92" stop-color="#2A3141"/>
<stop offset="0.95" stop-color="#3D435C"/>
<stop offset="0.97" stop-color="#454A67"/>
<stop offset="0.98" stop-color="#474C68"/>
<stop offset="0.99" stop-color="#4E516E"/>
<stop offset="1" stop-color="#6B6A85"/>
</linearGradient>
<linearGradient id="paint5_linear_1_2" x1="380.543" y1="244.523" x2="448.758" y2="101.531" gradientUnits="userSpaceOnUse">
<stop stop-color="#6B6A85"/>
<stop offset="0.06" stop-color="#262335"/>
<stop offset="0.08" stop-color="#0B0817"/>
<stop offset="0.2" stop-color="#1C1C2F"/>
<stop offset="0.37" stop-color="#2E3048"/>
<stop offset="0.54" stop-color="#3B3F59"/>
<stop offset="0.73" stop-color="#434764"/>
<stop offset="0.94" stop-color="#454A67"/>
<stop offset="1" stop-color="#6B6A85"/>
</linearGradient>
<linearGradient id="paint6_linear_1_2" x1="212.586" y1="689.736" x2="506.479" y2="73.6827" gradientUnits="userSpaceOnUse">
<stop stop-color="#595B77"/>
<stop offset="0.01" stop-color="#474C68"/>
<stop offset="0.03" stop-color="#454A67"/>
<stop offset="0.1" stop-color="#373D53"/>
<stop offset="0.28" stop-color="#192129"/>
<stop offset="0.41" stop-color="#071010"/>
<stop offset="0.49" stop-color="#000A06"/>
<stop offset="0.71" stop-color="#010B08"/>
<stop offset="0.78" stop-color="#06100F"/>
<stop offset="0.84" stop-color="#0F181A"/>
<stop offset="0.88" stop-color="#1B232B"/>
<stop offset="0.92" stop-color="#2A3141"/>
<stop offset="0.95" stop-color="#3D435C"/>
<stop offset="0.97" stop-color="#454A67"/>
<stop offset="0.98" stop-color="#474C68"/>
<stop offset="0.99" stop-color="#4E516E"/>
<stop offset="1" stop-color="#6B6A85"/>
</linearGradient>
<linearGradient id="paint7_linear_1_2" x1="801.928" y1="598.871" x2="329.633" y2="373.637" gradientUnits="userSpaceOnUse">
<stop stop-color="#98008C"/>
<stop offset="0.08" stop-color="#B4008C"/>
<stop offset="0.17" stop-color="#CD008C"/>
<stop offset="0.27" stop-color="#DE008C"/>
<stop offset="0.37" stop-color="#E9008C"/>
<stop offset="0.49" stop-color="#EC008C"/>
<stop offset="0.93" stop-color="#EC008C"/>
<stop offset="1" stop-color="#EC008C"/>
</linearGradient>
<radialGradient id="paint8_radial_1_2" cx="0" cy="0" r="1" gradientUnits="userSpaceOnUse" gradientTransform="translate(592.569 407.88) rotate(-64.5039) scale(299.297 155.613)">
<stop offset="0.5" stop-color="#0B0817" stop-opacity="0.8"/>
<stop offset="1" stop-color="#0B0817"/>
</radialGradient>
<linearGradient id="paint9_linear_1_2" x1="753.738" y1="543.512" x2="382.586" y2="366.512" gradientUnits="userSpaceOnUse">
<stop stop-color="#2C66EF" stop-opacity="0"/>
<stop offset="0.83" stop-color="#2C66EF" stop-opacity="0.16"/>
<stop offset="1" stop-color="#2C66EF" stop-opacity="0.2"/>
</linearGradient>
<linearGradient id="paint10_linear_1_2" x1="277.45" y1="685.653" x2="251.072" y2="673.074" gradientUnits="userSpaceOnUse">
<stop offset="0.05" stop-color="#B0E9FF"/>
<stop offset="0.11" stop-color="#D7F4FF"/>
<stop offset="0.17" stop-color="white"/>
<stop offset="0.37" stop-color="#C3BDF2"/>
<stop offset="0.76" stop-color="#E7E4FA"/>
<stop offset="0.99" stop-color="white"/>
</linearGradient>
<radialGradient id="paint11_radial_1_2" cx="0" cy="0" r="1" gradientUnits="userSpaceOnUse" gradientTransform="translate(563.569 123.787) rotate(90) scale(13.032 70.526)">
<stop stop-color="#00D1FF"/>
<stop offset="0.661458" stop-color="#00D1FF" stop-opacity="0"/>
</radialGradient>
<radialGradient id="paint12_radial_1_2" cx="0" cy="0" r="1" gradientUnits="userSpaceOnUse" gradientTransform="translate(564.261 124.117) rotate(90) scale(30.6635 70.526)">
<stop stop-color="#00D1FF"/>
<stop offset="0.661458" stop-color="#00D1FF" stop-opacity="0"/>
</radialGradient>
<radialGradient id="paint13_radial_1_2" cx="0" cy="0" r="1" gradientUnits="userSpaceOnUse" gradientTransform="translate(567.497 113.77) rotate(90) scale(36.7962)">
<stop stop-color="white"/>
<stop offset="1" stop-color="white" stop-opacity="0"/>
</radialGradient>
<radialGradient id="paint14_radial_1_2" cx="0" cy="0" r="1" gradientUnits="userSpaceOnUse" gradientTransform="translate(568.664 114.886) rotate(90) scale(6.14769 47.5284)">
<stop stop-color="#00D1FF"/>
<stop offset="0.661458" stop-color="#00D1FF" stop-opacity="0"/>
</radialGradient>
<radialGradient id="paint15_radial_1_2" cx="0" cy="0" r="1" gradientUnits="userSpaceOnUse" gradientTransform="translate(568.508 115.213) rotate(90) scale(14.4652 47.5284)">
<stop stop-color="#00D1FF"/>
<stop offset="0.661458" stop-color="#00D1FF" stop-opacity="0"/>
</radialGradient>
<radialGradient id="paint16_radial_1_2" cx="0" cy="0" r="1" gradientUnits="userSpaceOnUse" gradientTransform="translate(567.497 113.77) rotate(90) scale(9.19904)">
<stop stop-color="white"/>
<stop offset="1" stop-color="white" stop-opacity="0"/>
</radialGradient>
<radialGradient id="paint17_radial_1_2" cx="0" cy="0" r="1" gradientUnits="userSpaceOnUse" gradientTransform="translate(568.189 114.1) rotate(90) scale(40.6291 3.06635)">
<stop stop-color="white"/>
<stop offset="1" stop-color="white" stop-opacity="0"/>
</radialGradient>
<radialGradient id="paint18_radial_1_2" cx="0" cy="0" r="1" gradientUnits="userSpaceOnUse" gradientTransform="translate(568.189 114.1) rotate(90) scale(40.6291 3.06635)">
<stop stop-color="white"/>
<stop offset="1" stop-color="white" stop-opacity="0"/>
</radialGradient>
<clipPath id="clip0_1_2">
<rect width="1024" height="1024" fill="white"/>
</clipPath>
</defs>
</svg>
